Alice-Bold.ufo
<glyph name="ampersand" format="1">
  <advance width="648"/>
  <unicode hex="0026"/>
  <outline>
    <contour>
      <point x="652" y="139" type="line"/>
      <point x="574" y="139"/>
      <point x="526" y="164"/>
      <point x="402" y="277" type="curve" smooth="yes"/>
      <point x="263" y="404"/>
      <point x="253" y="431"/>
      <point x="253" y="475" type="curve" smooth="yes"/>
      <point x="253" y="503"/>
      <point x="269" y="522"/>
      <point x="303" y="522" type="curve" smooth="yes"/>
      <point x="331" y="522"/>
      <point x="346" y="509"/>
      <point x="346" y="482" type="curve" smooth="yes"/>
      <point x="346" y="453"/>
      <point x="328" y="429"/>
      <point x="240" y="387" type="curve" smooth="yes"/>
      <point x="60" y="301"/>
      <point x="9" y="254"/>
      <point x="10" y="158" type="curve" smooth="yes"/>
      <point x="11" y="46"/>
      <point x="135" y="-10"/>
      <point x="258" y="-10" type="curve" smooth="yes"/>
      <point x="503" y="-10"/>
      <point x="622" y="211"/>
      <point x="622" y="342" type="curve"/>
      <point x="476" y="342" type="line"/>
      <point x="456" y="164"/>
      <point x="375" y="126"/>
      <point x="295" y="126" type="curve" smooth="yes"/>
      <point x="237" y="126"/>
      <point x="215" y="151"/>
      <point x="215" y="183" type="curve" smooth="yes"/>
      <point x="215" y="215"/>
      <point x="238" y="241"/>
      <point x="316" y="277" type="curve" smooth="yes"/>
      <point x="454" y="340"/>
      <point x="525" y="426"/>
      <point x="525" y="500" type="curve" smooth="yes"/>
      <point x="525" y="579"/>
      <point x="473" y="670"/>
      <point x="305" y="670" type="curve" smooth="yes"/>
      <point x="143" y="670"/>
      <point x="67" y="577"/>
      <point x="67" y="487" type="curve" smooth="yes"/>
      <point x="67" y="397"/>
      <point x="151" y="311"/>
      <point x="324" y="163" type="curve" smooth="yes"/>
      <point x="476" y="33"/>
      <point x="539" y="-10"/>
      <point x="640" y="-10" type="curve"/>
    </contour>
  </outline>
</glyph>
<glyph name="five" format="1">
  <advance width="583"/>
  <unicode hex="0035"/>
  <outline>
    <contour>
      <point x="220" y="428"/>
      <point x="179" y="343"/>
      <point x="162" y="273" type="curve"/>
      <point x="197" y="257" type="line"/>
      <point x="218" y="275"/>
      <point x="245" y="282"/>
      <point x="275" y="282" type="curve" smooth="yes"/>
      <point x="327" y="282"/>
      <point x="349" y="256"/>
      <point x="349" y="224" type="curve" smooth="yes"/>
      <point x="349" y="185"/>
      <point x="320" y="163"/>
      <point x="278" y="163" type="curve" smooth="yes"/>
      <point x="232" y="163"/>
      <point x="207" y="185"/>
      <point x="198" y="225" type="curve"/>
      <point x="8" y="109" type="line"/>
      <point x="79" y="12"/>
      <point x="172" y="-10"/>
      <point x="285" y="-10" type="curve" smooth="yes"/>
      <point x="425" y="-10"/>
      <point x="562" y="58"/>
      <point x="562" y="236" type="curve" smooth="yes"/>
      <point x="562" y="345"/>
      <point x="489" y="428"/>
      <point x="356" y="428" type="curve" smooth="yes"/>
    </contour>
    <contour>
      <point x="82" y="660" type="line"/>
      <point x="38" y="289" type="line"/>
      <point x="198" y="257" type="line"/>
      <point x="234" y="420" type="line"/>
      <point x="254" y="660" type="line"/>
    </contour>
    <contour>
      <point x="142" y="660" type="line"/>
      <point x="133" y="489" type="line"/>
      <point x="521" y="489" type="line"/>
      <point x="521" y="660" type="line"/>
    </contour>
  </outline>
</glyph>
<glyph name="six" format="1">
  <advance width="615"/>
  <unicode hex="0036"/>
  <outline>
    <contour>
      <point x="170" y="670"/>
      <point x="36" y="563"/>
      <point x="36" y="330" type="curve" smooth="yes"/>
      <point x="36" y="95"/>
      <point x="146" y="-10"/>
      <point x="324" y="-10" type="curve" smooth="yes"/>
      <point x="486" y="-10"/>
      <point x="586" y="67"/>
      <point x="586" y="207" type="curve" smooth="yes"/>
      <point x="586" y="328"/>
      <point x="498" y="396"/>
      <point x="388" y="396" type="curve" smooth="yes"/>
      <point x="327" y="396"/>
      <point x="275" y="375"/>
      <point x="250" y="338" type="curve"/>
      <point x="246" y="338" type="line"/>
      <point x="251" y="462"/>
      <point x="293" y="493"/>
      <point x="344" y="493" type="curve" smooth="yes"/>
      <point x="383" y="493"/>
      <point x="403" y="471"/>
      <point x="411" y="430" type="curve"/>
      <point x="584" y="526" type="line"/>
      <point x="540" y="636"/>
      <point x="456" y="670"/>
      <point x="343" y="670" type="curve" smooth="yes"/>
    </contour>
    <contour>
      <point x="366" y="257"/>
      <point x="388" y="236"/>
      <point x="388" y="200" type="curve" smooth="yes"/>
      <point x="388" y="164"/>
      <point x="366" y="144"/>
      <point x="327" y="144" type="curve" smooth="yes"/>
      <point x="288" y="144"/>
      <point x="266" y="164"/>
      <point x="266" y="200" type="curve" smooth="yes"/>
      <point x="266" y="236"/>
      <point x="288" y="257"/>
      <point x="327" y="257" type="curve" smooth="yes"/>
    </contour>
  </outline>
</glyph>
<glyph name="equal" format="1">
  <advance width="697"/>
  <unicode hex="003D"/>
  <outline>
    <contour>
      <point x="53" y="551" type="line"/>
      <point x="53" y="385" type="line"/>
      <point x="644" y="385" type="line"/>
      <point x="644" y="551" type="line"/>
    </contour>
    <contour>
      <point x="53" y="265" type="line"/>
      <point x="53" y="99" type="line"/>
      <point x="644" y="99" type="line"/>
      <point x="644" y="265" type="line"/>
    </contour>
  </outline>
</glyph>
<glyph name="question" format="1">
  <advance width="651"/>
  <unicode hex="003F"/>
  <outline>
    <contour>
      <point x="114" y="670"/>
      <point x="37" y="588"/>
      <point x="28" y="490" type="curve"/>
      <point x="254" y="413" type="line"/>
      <point x="255" y="468"/>
      <point x="278" y="490"/>
      <point x="316" y="490" type="curve" smooth="yes"/>
      <point x="349" y="490"/>
      <point x="364" y="475"/>
      <point x="364" y="445" type="curve" smooth="yes"/>
      <point x="364" y="407"/>
      <point x="326" y="375"/>
      <point x="202" y="372" type="curve"/>
      <point x="202" y="218" type="line"/>
      <point x="422" y="218" type="line"/>
      <point x="422" y="290" type="line"/>
      <point x="532" y="302"/>
      <point x="614" y="348"/>
      <point x="614" y="481" type="curve" smooth="yes"/>
      <point x="614" y="621"/>
      <point x="496" y="670"/>
      <point x="331" y="670" type="curve" smooth="yes"/>
    </contour>
    <component base="period" xOffset="182" xScale="0.95" yScale="0.9"/>
  </outline>
</glyph>
<glyph name="B" format="1">
  <advance width="704"/>
  <unicode hex="0042"/>
  <outline>
    <contour>
      <point x="692" y="280"/>
      <point x="615" y="335"/>
      <point x="455" y="335" type="curve" smooth="yes"/>
      <point x="243" y="335" type="line"/>
      <point x="243" y="252" type="line"/>
      <point x="392" y="252" type="line" smooth="yes"/>
      <point x="434" y="252"/>
      <point x="454" y="236"/>
      <point x="454" y="205" type="curve" smooth="yes"/>
      <point x="454" y="172"/>
      <point x="434" y="156"/>
      <point x="392" y="156" type="curve" smooth="yes"/>
      <point x="243" y="156" type="line"/>
      <point x="243" y="0" type="line"/>
      <point x="454" y="0" type="line" smooth="yes"/>
      <point x="615" y="0"/>
      <point x="692" y="58"/>
      <point x="692" y="173" type="curve" smooth="yes"/>
    </contour>
    <contour>
      <point x="50" y="660" type="line"/>
      <point x="50" y="0" type="line"/>
      <point x="273" y="0" type="line"/>
      <point x="273" y="660" type="line"/>
    </contour>
    <contour>
      <point x="675" y="601"/>
      <point x="595" y="658"/>
      <point x="428" y="659" type="curve" smooth="yes"/>
      <point x="243" y="660" type="line"/>
      <point x="243" y="504" type="line"/>
      <point x="375" y="504" type="line" smooth="yes"/>
      <point x="417" y="504"/>
      <point x="437" y="488"/>
      <point x="437" y="456" type="curve" smooth="yes"/>
      <point x="437" y="424"/>
      <point x="417" y="408"/>
      <point x="375" y="408" type="curve" smooth="yes"/>
      <point x="243" y="408" type="line"/>
      <point x="243" y="319" type="line"/>
      <point x="428" y="319" type="line" smooth="yes"/>
      <point x="594" y="319"/>
      <point x="675" y="374"/>
      <point x="675" y="484" type="curve" smooth="yes"/>
    </contour>
  </outline>
</glyph>
<glyph name="C" format="1">
  <advance width="677"/>
  <unicode hex="0043"/>
  <outline>
    <contour>
      <point x="464" y="255" type="line"/>
      <point x="456" y="192"/>
      <point x="433" y="165"/>
      <point x="369" y="165" type="curve" smooth="yes"/>
      <point x="299" y="165"/>
      <point x="267" y="217"/>
      <point x="267" y="330" type="curve" smooth="yes"/>
      <point x="267" y="444"/>
      <point x="302" y="495"/>
      <point x="371" y="495" type="curve" smooth="yes"/>
      <point x="426" y="495"/>
      <point x="454" y="478"/>
      <point x="465" y="383" type="curve"/>
      <point x="665" y="470" type="line"/>
      <point x="637" y="611"/>
      <point x="510" y="670"/>
      <point x="365" y="670" type="curve" smooth="yes"/>
      <point x="156" y="670"/>
      <point x="29" y="546"/>
      <point x="29" y="330" type="curve" smooth="yes"/>
      <point x="29" y="114"/>
      <point x="156" y="-10"/>
      <point x="365" y="-10" type="curve" smooth="yes"/>
      <point x="516" y="-10"/>
      <point x="633" y="47"/>
      <point x="670" y="202" type="curve"/>
    </contour>
    <contour>
      <point x="356" y="660" type="move" name="top"/>
    </contour>
    <contour>
      <point x="364" y="0" type="move" name="bottom"/>
    </contour>
  </outline>
</glyph>
<glyph name="F" format="1">
  <advance width="614"/>
  <unicode hex="0046"/>
  <outline>
    <contour>
      <point x="50" y="660" type="line"/>
      <point x="50" y="0" type="line"/>
      <point x="283" y="0" type="line"/>
      <point x="283" y="660" type="line"/>
    </contour>
    <contour>
      <point x="162" y="397" type="line"/>
      <point x="162" y="226" type="line"/>
      <point x="537" y="226" type="line"/>
      <point x="536" y="397" type="line"/>
    </contour>
    <contour>
      <point x="162" y="660" type="line"/>
      <point x="162" y="489" type="line"/>
      <point x="598" y="489" type="line"/>
      <point x="597" y="660" type="line"/>
    </contour>
  </outline>
</glyph>
<glyph name="H" format="1">
  <advance width="747"/>
  <unicode hex="0048"/>
  <outline>
    <contour>
      <point x="464" y="660" type="line"/>
      <point x="464" y="0" type="line"/>
      <point x="697" y="0" type="line"/>
      <point x="697" y="660" type="line"/>
    </contour>
    <contour>
      <point x="50" y="660" type="line"/>
      <point x="50" y="0" type="line"/>
      <point x="283" y="0" type="line"/>
      <point x="283" y="660" type="line"/>
    </contour>
    <contour>
      <point x="162" y="417" type="line"/>
      <point x="162" y="246" type="line"/>
      <point x="593" y="246" type="line"/>
      <point x="593" y="417" type="line"/>
    </contour>
  </outline>
</glyph>
<glyph name="K" format="1">
  <advance width="717"/>
  <unicode hex="004B"/>
  <outline>
    <contour>
      <point x="455" y="660" type="line"/>
      <point x="170" y="253" type="line"/>
      <point x="224" y="92" type="line"/>
      <point x="369" y="290" type="line"/>
      <point x="379" y="239" type="line"/>
      <point x="703" y="660" type="line"/>
    </contour>
    <contour>
      <point x="50" y="660" type="line"/>
      <point x="50" y="0" type="line"/>
      <point x="283" y="0" type="line"/>
      <point x="283" y="660" type="line"/>
    </contour>
    <contour>
      <point x="296" y="330" type="line"/>
      <point x="460" y="0" type="line"/>
      <point x="721" y="0" type="line"/>
      <point x="467" y="459" type="line"/>
    </contour>
    <contour>
      <point x="359" y="660" type="move" name="top"/>
    </contour>
    <contour>
      <point x="356" y="0" type="move" name="bottom"/>
    </contour>
  </outline>
</glyph>
<glyph name="U" format="1">
  <advance width="738"/>
  <unicode hex="0055"/>
  <outline>
    <contour>
      <point x="455" y="660" type="line"/>
      <point x="455" y="266" type="line" smooth="yes"/>
      <point x="455" y="199"/>
      <point x="425" y="165"/>
      <point x="369" y="165" type="curve" smooth="yes"/>
      <point x="314" y="165"/>
      <point x="284" y="199"/>
      <point x="284" y="266" type="curve" smooth="yes"/>
      <point x="284" y="660" type="line"/>
      <point x="50" y="660" type="line"/>
      <point x="50" y="284" type="line" smooth="yes"/>
      <point x="50" y="87"/>
      <point x="156" y="-10"/>
      <point x="369" y="-10" type="curve" smooth="yes"/>
      <point x="582" y="-10"/>
      <point x="688" y="87"/>
      <point x="688" y="284" type="curve" smooth="yes"/>
      <point x="688" y="660" type="line"/>
    </contour>
    <contour>
      <point x="501" y="10" type="move" name="ogonek"/>
    </contour>
    <contour>
      <point x="369" y="660" type="move" name="top"/>
    </contour>
  </outline>
</glyph>
<glyph name="bracketleft" format="1">
  <advance width="420"/>
  <unicode hex="005B"/>
  <outline>
    <contour>
      <point x="84" y="701" type="line"/>
      <point x="84" y="-168" type="line"/>
      <point x="279" y="-168" type="line"/>
      <point x="279" y="701" type="line"/>
    </contour>
    <contour>
      <point x="180" y="-17" type="line"/>
      <point x="180" y="-168" type="line"/>
      <point x="399" y="-168" type="line"/>
      <point x="399" y="-17" type="line"/>
    </contour>
    <contour>
      <point x="180" y="701" type="line"/>
      <point x="180" y="550" type="line"/>
      <point x="399" y="550" type="line"/>
      <point x="399" y="701" type="line"/>
    </contour>
  </outline>
</glyph>
<glyph name="f" format="1">
  <advance width="430"/>
  <unicode hex="0066"/>
  <outline>
    <contour>
      <point x="183" y="721"/>
      <point x="70" y="672"/>
      <point x="70" y="520" type="curve" smooth="yes"/>
      <point x="70" y="0" type="line"/>
      <point x="300" y="0" type="line"/>
      <point x="300" y="421" type="line"/>
      <point x="284" y="450" type="line"/>
      <point x="284" y="508" type="line" smooth="yes"/>
      <point x="284" y="555"/>
      <point x="313" y="570"/>
      <point x="361" y="570" type="curve" smooth="yes"/>
      <point x="389" y="570"/>
      <point x="404" y="565"/>
      <point x="418" y="554" type="curve"/>
      <point x="433" y="687" type="line"/>
      <point x="407" y="707"/>
      <point x="361" y="721"/>
      <point x="298" y="721" type="curve" smooth="yes"/>
    </contour>
    <contour>
      <point x="3" y="500" type="line"/>
      <point x="3" y="345" type="line"/>
      <point x="426" y="345" type="line"/>
      <point x="426" y="500" type="line"/>
    </contour>
  </outline>
</glyph>
<glyph name="g" format="1">
  <advance width="578"/>
  <unicode hex="0067"/>
  <outline>
    <contour>
      <point x="429" y="677"/>
      <point x="387" y="566"/>
      <point x="387" y="474" type="curve"/>
      <point x="454" y="454" type="line"/>
      <point x="454" y="494"/>
      <point x="497" y="539"/>
      <point x="577" y="520" type="curve"/>
      <point x="558" y="662" type="line"/>
    </contour>
    <component base="gbase" xOffset="-6"/>
    <contour>
      <point x="255" y="500" type="move" name="top"/>
    </contour>
  </outline>
</glyph>
<glyph name="m" format="1">
  <advance width="933"/>
  <unicode hex="006D"/>
  <outline>
    <contour>
      <point x="612" y="510"/>
      <point x="544" y="418"/>
      <point x="544" y="262" type="curve"/>
      <point x="582" y="262" type="line"/>
      <point x="582" y="316"/>
      <point x="597" y="340"/>
      <point x="630" y="340" type="curve" smooth="yes"/>
      <point x="654" y="340"/>
      <point x="665" y="327"/>
      <point x="665" y="282" type="curve" smooth="yes"/>
      <point x="665" y="0" type="line"/>
      <point x="895" y="0" type="line"/>
      <point x="895" y="342" type="line" smooth="yes"/>
      <point x="895" y="449"/>
      <point x="837" y="510"/>
      <point x="738" y="510" type="curve" smooth="yes"/>
    </contour>
    <contour>
      <point x="39" y="500" type="line"/>
      <point x="39" y="281" type="line"/>
      <point x="39" y="0" type="line"/>
      <point x="269" y="0" type="line"/>
      <point x="269" y="281" type="line"/>
      <point x="254" y="338" type="line"/>
      <point x="246" y="500" type="line"/>
    </contour>
    <contour>
      <point x="299" y="510"/>
      <point x="231" y="418"/>
      <point x="231" y="262" type="curve"/>
      <point x="269" y="262" type="line"/>
      <point x="269" y="316"/>
      <point x="284" y="340"/>
      <point x="317" y="340" type="curve" smooth="yes"/>
      <point x="341" y="340"/>
      <point x="352" y="327"/>
      <point x="352" y="282" type="curve" smooth="yes"/>
      <point x="352" y="0" type="line"/>
      <point x="582" y="0" type="line"/>
      <point x="582" y="342" type="line" smooth="yes"/>
      <point x="582" y="449"/>
      <point x="524" y="510"/>
      <point x="425" y="510" type="curve" smooth="yes"/>
    </contour>
  </outline>
</glyph>
<glyph name="n" format="1">
  <advance width="620"/>
  <unicode hex="006E"/>
  <outline>
    <contour>
      <point x="299" y="510"/>
      <point x="231" y="418"/>
      <point x="231" y="262" type="curve"/>
      <point x="269" y="262" type="line"/>
      <point x="269" y="316"/>
      <point x="284" y="340"/>
      <point x="317" y="340" type="curve" smooth="yes"/>
      <point x="341" y="340"/>
      <point x="352" y="327"/>
      <point x="352" y="282" type="curve" smooth="yes"/>
      <point x="352" y="0" type="line"/>
      <point x="582" y="0" type="line"/>
      <point x="582" y="342" type="line" smooth="yes"/>
      <point x="582" y="449"/>
      <point x="524" y="510"/>
      <point x="425" y="510" type="curve" smooth="yes"/>
    </contour>
    <contour>
      <point x="39" y="500" type="line"/>
      <point x="39" y="281" type="line"/>
      <point x="39" y="0" type="line"/>
      <point x="269" y="0" type="line"/>
      <point x="269" y="281" type="line"/>
      <point x="254" y="338" type="line"/>
      <point x="246" y="500" type="line"/>
    </contour>
    <contour>
      <point x="309" y="500" type="move" name="top"/>
    </contour>
    <contour>
      <point x="303" y="0" type="move" name="bottom"/>
    </contour>
  </outline>
</glyph>
<glyph name="o" format="1">
  <advance width="598"/>
  <unicode hex="006F"/>
  <outline>
    <contour>
      <point x="122" y="510"/>
      <point x="20" y="415"/>
      <point x="20" y="250" type="curve" smooth="yes"/>
      <point x="20" y="85"/>
      <point x="122" y="-10"/>
      <point x="299" y="-10" type="curve" smooth="yes"/>
      <point x="476" y="-10"/>
      <point x="578" y="85"/>
      <point x="578" y="250" type="curve" smooth="yes"/>
      <point x="578" y="415"/>
      <point x="476" y="510"/>
      <point x="299" y="510" type="curve" smooth="yes"/>
    </contour>
    <contour>
      <point x="337" y="355"/>
      <point x="347" y="334"/>
      <point x="347" y="250" type="curve" smooth="yes"/>
      <point x="347" y="166"/>
      <point x="337" y="145"/>
      <point x="299" y="145" type="curve" smooth="yes"/>
      <point x="261" y="145"/>
      <point x="251" y="166"/>
      <point x="251" y="250" type="curve" smooth="yes"/>
      <point x="251" y="334"/>
      <point x="261" y="355"/>
      <point x="299" y="355" type="curve" smooth="yes"/>
    </contour>
    <contour>
      <point x="299" y="500" type="move" name="top"/>
    </contour>
  </outline>
</glyph>
<glyph name="x" format="1">
  <advance width="627"/>
  <unicode hex="0078"/>
  <outline>
    <contour>
      <point x="-7" y="500" type="line"/>
      <point x="180" y="228" type="line"/>
      <point x="272" y="235" type="line"/>
      <point x="384" y="0" type="line"/>
      <point x="638" y="0" type="line"/>
      <point x="446" y="278" type="line"/>
      <point x="356" y="265" type="line"/>
      <point x="247" y="500" type="line"/>
    </contour>
    <contour>
      <point x="383" y="500" type="line"/>
      <point x="271" y="265" type="line"/>
      <point x="178" y="278" type="line"/>
      <point x="-11" y="0" type="line"/>
      <point x="240" y="0" type="line"/>
      <point x="349" y="235" type="line"/>
      <point x="450" y="228" type="line"/>
      <point x="634" y="500" type="line"/>
    </contour>
  </outline>
</glyph>
<glyph name="z" format="1">
  <advance width="502"/>
  <unicode hex="007A"/>
  <outline>
    <contour>
      <point x="178" y="304" type="line"/>
      <point x="22" y="132" type="line"/>
      <point x="167" y="49" type="line"/>
      <point x="326" y="198" type="line"/>
      <point x="479" y="368" type="line"/>
      <point x="323" y="448" type="line"/>
    </contour>
    <contour>
      <point x="359" y="152" type="line"/>
      <point x="184" y="147" type="line"/>
      <point x="22" y="132" type="line"/>
      <point x="22" y="0" type="line"/>
      <point x="309" y="0" type="line"/>
      <point x="489" y="0" type="line"/>
      <point x="489" y="152" type="line"/>
    </contour>
    <contour>
      <point x="172" y="500" type="line"/>
      <point x="22" y="500" type="line"/>
      <point x="22" y="348" type="line"/>
      <point x="152" y="348" type="line"/>
      <point x="317" y="353" type="line"/>
      <point x="479" y="368" type="line"/>
      <point x="479" y="500" type="line"/>
    </contour>
    <contour>
      <point x="252" y="500" type="move" name="top"/>
    </contour>
  </outline>
</glyph>
<glyph name="logicalnot" format="1">
  <advance width="697"/>
  <unicode hex="00AC"/>
  <outline>
    <contour>
      <point x="473" y="310" type="line"/>
      <point x="473" y="75" type="line"/>
      <point x="649" y="75" type="line"/>
      <point x="649" y="310" type="line"/>
    </contour>
    <component base="minus" yOffset="45" yScale="0.857"/>
  </outline>
</glyph>
<glyph name="registered" format="1">
  <advance width="740"/>
  <unicode hex="00AE"/>
  <outline>
    <contour>
      <point x="161" y="670"/>
      <point x="24" y="535"/>
      <point x="24" y="330" type="curve" smooth="yes"/>
      <point x="24" y="125"/>
      <point x="161" y="-10"/>
      <point x="370" y="-10" type="curve" smooth="yes"/>
      <point x="579" y="-10"/>
      <point x="716" y="125"/>
      <point x="716" y="330" type="curve" smooth="yes"/>
      <point x="716" y="535"/>
      <point x="579" y="670"/>
      <point x="370" y="670" type="curve" smooth="yes"/>
    </contour>
    <contour>
      <point x="218" y="517" type="line"/>
      <point x="217" y="157" type="line"/>
      <point x="342" y="157" type="line"/>
      <point x="342" y="517" type="line"/>
    </contour>
    <contour>
      <point x="333" y="297" type="line"/>
      <point x="391" y="157" type="line"/>
      <point x="543" y="157" type="line"/>
      <point x="442" y="320" type="line"/>
    </contour>
    <contour>
      <point x="518" y="574"/>
      <point x="615" y="477"/>
      <point x="615" y="330" type="curve" smooth="yes"/>
      <point x="615" y="183"/>
      <point x="518" y="86"/>
      <point x="370" y="86" type="curve" smooth="yes"/>
      <point x="222" y="86"/>
      <point x="125" y="183"/>
      <point x="125" y="330" type="curve" smooth="yes"/>
      <point x="125" y="477"/>
      <point x="222" y="574"/>
      <point x="370" y="574" type="curve" smooth="yes"/>
    </contour>
    <contour>
      <point x="288" y="517" type="line"/>
      <point x="288" y="411" type="line"/>
      <point x="370" y="411" type="line" smooth="yes"/>
      <point x="391" y="411"/>
      <point x="407" y="405"/>
      <point x="407" y="384" type="curve" smooth="yes"/>
      <point x="407" y="363"/>
      <point x="391" y="357"/>
      <point x="370" y="357" type="curve" smooth="yes"/>
      <point x="288" y="357" type="line"/>
      <point x="288" y="275" type="line"/>
      <point x="389" y="275" type="line" smooth="yes"/>
      <point x="478" y="275"/>
      <point x="534" y="318"/>
      <point x="534" y="396" type="curve" smooth="yes"/>
      <point x="534" y="465"/>
      <point x="478" y="517"/>
      <point x="409" y="517" type="curve" smooth="yes"/>
    </contour>
  </outline>
</glyph>
<glyph name="degree" format="1">
  <advance width="519"/>
  <unicode hex="00B0"/>
  <outline>
    <contour>
      <point x="399" y="270"/>
      <point x="483" y="345"/>
      <point x="483" y="470" type="curve" smooth="yes"/>
      <point x="483" y="594"/>
      <point x="399" y="670"/>
      <point x="260" y="670" type="curve" smooth="yes"/>
      <point x="120" y="670"/>
      <point x="36" y="594"/>
      <point x="36" y="470" type="curve" smooth="yes"/>
      <point x="36" y="345"/>
      <point x="120" y="270"/>
      <point x="260" y="270" type="curve" smooth="yes"/>
    </contour>
    <contour>
      <point x="221" y="408"/>
      <point x="195" y="433"/>
      <point x="195" y="471" type="curve" smooth="yes"/>
      <point x="195" y="508"/>
      <point x="221" y="533"/>
      <point x="260" y="533" type="curve" smooth="yes"/>
      <point x="298" y="533"/>
      <point x="324" y="508"/>
      <point x="324" y="471" type="curve" smooth="yes"/>
      <point x="324" y="433"/>
      <point x="298" y="408"/>
      <point x="260" y="408" type="curve" smooth="yes"/>
    </contour>
  </outline>
</glyph>
<glyph name="plusminus" format="1">
  <advance width="697"/>
  <unicode hex="00B1"/>
  <outline>
    <contour>
      <point x="261" y="660" type="line"/>
      <point x="261" y="76" type="line"/>
      <point x="436" y="76" type="line"/>
      <point x="436" y="660" type="line"/>
    </contour>
    <contour>
      <point x="48" y="471" type="line"/>
      <point x="48" y="314" type="line"/>
      <point x="649" y="314" type="line"/>
      <point x="649" y="471" type="line"/>
    </contour>
    <contour>
      <point x="48" y="157" type="line"/>
      <point x="48" y="1" type="line"/>
      <point x="649" y="1" type="line"/>
      <point x="649" y="157" type="line"/>
    </contour>
  </outline>
</glyph>
<glyph name="onequarter" format="1">
  <advance width="895"/>
  <unicode hex="00BC"/>
  <outline>
    <contour>
      <point x="29" y="477" type="line"/>
      <point x="105" y="490"/>
      <point x="203" y="558"/>
      <point x="228" y="613" type="curve"/>
      <point x="150" y="660" type="line"/>
      <point x="129" y="635"/>
      <point x="78" y="611"/>
      <point x="29" y="603" type="curve"/>
    </contour>
    <contour>
      <point x="150" y="660" type="line"/>
      <point x="123" y="577" type="line"/>
      <point x="123" y="286" type="line"/>
      <point x="302" y="286" type="line"/>
      <point x="302" y="577" type="line"/>
      <point x="302" y="660" type="line"/>
    </contour>
    <contour>
      <point x="655" y="374" type="line"/>
      <point x="485" y="136" type="line"/>
      <point x="579" y="136" type="line"/>
      <point x="610" y="181" type="line"/>
      <point x="633" y="218" type="line"/>
      <point x="712" y="374" type="line"/>
    </contour>
    <contour>
      <point x="675" y="374" type="line"/>
      <point x="639" y="107" type="line"/>
      <point x="639" y="0" type="line"/>
      <point x="802" y="0" type="line"/>
      <point x="802" y="113" type="line"/>
      <point x="802" y="374" type="line"/>
    </contour>
    <contour>
      <point x="550" y="168" type="line"/>
      <point x="485" y="136" type="line"/>
      <point x="485" y="69" type="line"/>
      <point x="861" y="69" type="line"/>
      <point x="861" y="168" type="line"/>
    </contour>
    <component base="fraction" xOffset="165"/>
  </outline>
</glyph>
<glyph name="Aring" format="1">
  <advance width="694"/>
  <unicode hex="00C5"/>
  <outline>
    <contour>
      <point x="212" y="660" type="line"/>
      <point x="-10" y="0" type="line"/>
      <point x="229" y="0" type="line"/>
      <point x="317" y="374" type="line"/>
      <point x="342" y="487" type="line"/>
      <point x="347" y="487" type="line"/>
      <point x="373" y="374" type="line"/>
      <point x="459" y="0" type="line"/>
      <point x="704" y="0" type="line"/>
      <point x="481" y="660" type="line"/>
    </contour>
    <contour>
      <point x="158" y="272" type="line"/>
      <point x="158" y="123" type="line"/>
      <point x="536" y="123" type="line"/>
      <point x="536" y="272" type="line"/>
    </contour>
    <contour>
      <point x="241" y="867"/>
      <point x="181" y="812"/>
      <point x="181" y="730" type="curve" smooth="yes"/>
      <point x="181" y="647"/>
      <point x="241" y="606"/>
      <point x="347" y="606" type="curve" smooth="yes"/>
      <point x="453" y="606"/>
      <point x="513" y="647"/>
      <point x="513" y="730" type="curve" smooth="yes"/>
      <point x="513" y="812"/>
      <point x="453" y="867"/>
      <point x="347" y="867" type="curve" smooth="yes"/>
    </contour>
    <contour>
      <point x="379" y="768"/>
      <point x="397" y="751"/>
      <point x="397" y="721" type="curve" smooth="yes"/>
      <point x="397" y="691"/>
      <point x="379" y="674"/>
      <point x="347" y="674" type="curve" smooth="yes"/>
      <point x="315" y="674"/>
      <point x="297" y="691"/>
      <point x="297" y="721" type="curve" smooth="yes"/>
      <point x="297" y="751"/>
      <point x="315" y="768"/>
      <point x="347" y="768" type="curve" smooth="yes"/>
    </contour>
    <contour>
      <point x="704" y="0" type="move" name="ogonek"/>
    </contour>
    <contour>
      <point x="346" y="660" type="move" name="top"/>
    </contour>
  </outline>
</glyph>
<glyph name="germandbls" format="1">
  <advance width="666"/>
  <unicode hex="00DF"/>
  <outline>
    <contour>
      <point x="130" y="705"/>
      <point x="39" y="610"/>
      <point x="39" y="437" type="curve" smooth="yes"/>
      <point x="39" y="0" type="line"/>
      <point x="269" y="0" type="line"/>
      <point x="269" y="431" type="line" smooth="yes"/>
      <point x="269" y="518"/>
      <point x="292" y="550"/>
      <point x="355" y="550" type="curve" smooth="yes"/>
      <point x="391" y="550"/>
      <point x="417" y="526"/>
      <point x="417" y="486" type="curve" smooth="yes"/>
      <point x="417" y="444"/>
      <point x="398" y="418"/>
      <point x="364" y="417" type="curve" smooth="yes"/>
      <point x="338" y="417" type="line"/>
      <point x="325" y="346" type="line"/>
      <point x="472" y="346" type="line" smooth="yes"/>
      <point x="565" y="346"/>
      <point x="638" y="413"/>
      <point x="638" y="507" type="curve" smooth="yes"/>
      <point x="638" y="628"/>
      <point x="537" y="705"/>
      <point x="356" y="705" type="curve" smooth="yes"/>
    </contour>
    <contour>
      <point x="325" y="346" type="line"/>
      <point x="310" y="265" type="line"/>
      <point x="365" y="265" type="line" smooth="yes"/>
      <point x="406" y="265"/>
      <point x="428" y="245"/>
      <point x="428" y="208" type="curve" smooth="yes"/>
      <point x="428" y="168"/>
      <point x="407" y="145"/>
      <point x="376" y="145" type="curve" smooth="yes"/>
      <point x="349" y="145"/>
      <point x="337" y="152"/>
      <point x="323" y="167" type="curve"/>
      <point x="293" y="22" type="line"/>
      <point x="325" y="1"/>
      <point x="371" y="-10"/>
      <point x="429" y="-10" type="curve" smooth="yes"/>
      <point x="583" y="-10"/>
      <point x="649" y="78"/>
      <point x="649" y="175" type="curve" smooth="yes"/>
      <point x="649" y="282"/>
      <point x="572" y="346"/>
      <point x="472" y="346" type="curve" smooth="yes"/>
    </contour>
  </outline>
</glyph>
<glyph name="ae" format="1">
  <advance width="898"/>
  <unicode hex="00E6"/>
  <outline>
    <contour>
      <point x="464" y="510"/>
      <point x="374" y="386"/>
      <point x="374" y="250" type="curve" smooth="yes"/>
      <point x="374" y="94"/>
      <point x="454" y="-10"/>
      <point x="633" y="-10" type="curve" smooth="yes"/>
      <point x="735" y="-10"/>
      <point x="835" y="41"/>
      <point x="858" y="135" type="curve"/>
      <point x="673" y="186" type="line"/>
      <point x="666" y="155"/>
      <point x="651" y="140"/>
      <point x="622" y="140" type="curve" smooth="yes"/>
      <point x="576" y="140"/>
      <point x="552" y="156"/>
      <point x="552" y="246" type="curve" smooth="yes"/>
      <point x="552" y="333"/>
      <point x="570" y="360"/>
      <point x="607" y="360" type="curve" smooth="yes"/>
      <point x="642" y="360"/>
      <point x="653" y="333"/>
      <point x="653" y="249" type="curve" smooth="yes"/>
      <point x="653" y="206" type="line"/>
      <point x="869" y="206" type="line"/>
      <point x="870" y="236" type="line" smooth="yes"/>
      <point x="876" y="412"/>
      <point x="769" y="510"/>
      <point x="619" y="510" type="curve" smooth="yes"/>
    </contour>
    <contour>
      <point x="216" y="264" type="line" smooth="yes"/>
      <point x="68" y="237"/>
      <point x="16" y="198"/>
      <point x="16" y="107" type="curve" smooth="yes"/>
      <point x="16" y="39"/>
      <point x="73" y="-10"/>
      <point x="205" y="-10" type="curve" smooth="yes"/>
      <point x="387" y="-10"/>
      <point x="462" y="84"/>
      <point x="462" y="179" type="curve"/>
      <point x="325" y="161" type="line"/>
      <point x="325" y="118"/>
      <point x="300" y="106"/>
      <point x="268" y="106" type="curve" smooth="yes"/>
      <point x="235" y="106"/>
      <point x="221" y="122"/>
      <point x="221" y="146" type="curve" smooth="yes"/>
      <point x="221" y="176"/>
      <point x="241" y="190"/>
      <point x="292" y="200" type="curve" smooth="yes"/>
      <point x="375" y="216" type="line"/>
      <point x="357" y="290" type="line"/>
    </contour>
    <contour>
      <point x="114" y="510"/>
      <point x="28" y="443"/>
      <point x="19" y="337" type="curve"/>
      <point x="198" y="305" type="line"/>
      <point x="208" y="349"/>
      <point x="229" y="363"/>
      <point x="281" y="363" type="curve" smooth="yes"/>
      <point x="313" y="363"/>
      <point x="325" y="345"/>
      <point x="325" y="312" type="curve" smooth="yes"/>
      <point x="325" y="112" type="line"/>
      <point x="513" y="148" type="line"/>
      <point x="513" y="304" type="line" smooth="yes"/>
      <point x="513" y="431"/>
      <point x="413" y="510"/>
      <point x="271" y="510" type="curve" smooth="yes"/>
    </contour>
    <contour>
      <point x="472" y="285" type="line"/>
      <point x="472" y="206" type="line"/>
      <point x="763" y="206" type="line"/>
      <point x="763" y="285" type="line"/>
    </contour>
  </outline>
</glyph>
<glyph name="eth" format="1">
  <advance width="601"/>
  <unicode hex="00F0"/>
  <outline>
    <contour>
      <point x="149" y="717" type="line"/>
      <point x="321" y="591"/>
      <point x="408" y="521"/>
      <point x="408" y="318" type="curve"/>
      <point x="350" y="246" type="line"/>
      <point x="350" y="169"/>
      <point x="338" y="145"/>
      <point x="299" y="145" type="curve" smooth="yes"/>
      <point x="262" y="145"/>
      <point x="251" y="171"/>
      <point x="251" y="246" type="curve" smooth="yes"/>
      <point x="251" y="335"/>
      <point x="262" y="362"/>
      <point x="299" y="362" type="curve" smooth="yes"/>
      <point x="338" y="362"/>
      <point x="350" y="335"/>
      <point x="350" y="246" type="curve"/>
      <point x="420" y="265" type="line"/>
      <point x="420" y="395"/>
      <point x="407" y="502"/>
      <point x="271" y="502" type="curve" smooth="yes"/>
      <point x="119" y="502"/>
      <point x="20" y="409"/>
      <point x="20" y="246" type="curve" smooth="yes"/>
      <point x="20" y="83"/>
      <point x="120" y="-10"/>
      <point x="282" y="-10" type="curve" smooth="yes"/>
      <point x="484" y="-10"/>
      <point x="565" y="75"/>
      <point x="565" y="313" type="curve" smooth="yes"/>
      <point x="565" y="543"/>
      <point x="428" y="671"/>
      <point x="334" y="717" type="curve"/>
    </contour>
    <contour>
      <point x="165" y="604" type="line"/>
      <point x="176" y="544" type="line"/>
      <point x="346" y="573" type="line"/>
      <point x="311" y="616" type="line"/>
    </contour>
    <contour>
      <point x="397" y="635" type="line"/>
      <point x="416" y="598" type="line"/>
      <point x="575" y="610" type="line"/>
      <point x="560" y="670" type="line"/>
    </contour>
  </outline>
</glyph>
<glyph name="aogonek" format="1">
  <advance width="588"/>
  <unicode hex="0105"/>
  <outline>
    <contour>
      <point x="111" y="510"/>
      <point x="28" y="441"/>
      <point x="18" y="337" type="curve"/>
      <point x="199" y="305" type="line"/>
      <point x="211" y="340"/>
      <point x="227" y="361"/>
      <point x="266" y="361" type="curve" smooth="yes"/>
      <point x="298" y="361"/>
      <point x="310" y="343"/>
      <point x="310" y="312" type="curve" smooth="yes"/>
      <point x="310" y="112" type="line"/>
      <point x="354" y="129" type="line"/>
      <point x="354" y="38"/>
      <point x="423" y="8"/>
      <point x="505" y="8" type="curve" smooth="yes"/>
      <point x="505" y="8"/>
      <point x="579" y="5"/>
      <point x="579" y="5" type="curve"/>
      <point x="597" y="127" type="line"/>
      <point x="591" y="124"/>
      <point x="583" y="123"/>
      <point x="572" y="123" type="curve" smooth="yes"/>
      <point x="550" y="123"/>
      <point x="538" y="136"/>
      <point x="538" y="164" type="curve" smooth="yes"/>
      <point x="538" y="304" type="line" smooth="yes"/>
      <point x="538" y="441"/>
      <point x="457" y="510"/>
      <point x="278" y="510" type="curve" smooth="yes"/>
    </contour>
    <contour>
      <point x="379" y="27"/>
      <point x="321" y="-17"/>
      <point x="321" y="-90" type="curve" smooth="yes"/>
      <point x="321" y="-180"/>
      <point x="390" y="-215"/>
      <point x="473" y="-215" type="curve" smooth="yes"/>
      <point x="523" y="-215"/>
      <point x="559" y="-209"/>
      <point x="591" y="-189" type="curve"/>
      <point x="564" y="-86" type="line"/>
      <point x="554" y="-92"/>
      <point x="539" y="-94"/>
      <point x="524" y="-94" type="curve" smooth="yes"/>
      <point x="493" y="-94"/>
      <point x="475" y="-80"/>
      <point x="475" y="-56" type="curve" smooth="yes"/>
      <point x="475" y="-18"/>
      <point x="511" y="-1"/>
      <point x="579" y="5" type="curve"/>
      <point x="481" y="27" type="line"/>
    </contour>
    <contour>
      <point x="211" y="270" type="line" smooth="yes"/>
      <point x="69" y="239"/>
      <point x="16" y="192"/>
      <point x="16" y="109" type="curve" smooth="yes"/>
      <point x="16" y="33"/>
      <point x="65" y="-10"/>
      <point x="170" y="-10" type="curve" smooth="yes"/>
      <point x="312" y="-10"/>
      <point x="372" y="74"/>
      <point x="372" y="164" type="curve"/>
      <point x="310" y="164" type="line"/>
      <point x="310" y="131"/>
      <point x="291" y="115"/>
      <point x="267" y="115" type="curve" smooth="yes"/>
      <point x="248" y="115"/>
      <point x="232" y="126"/>
      <point x="232" y="150" type="curve" smooth="yes"/>
      <point x="232" y="175"/>
      <point x="249" y="194"/>
      <point x="277" y="202" type="curve" smooth="yes"/>
      <point x="360" y="226" type="line"/>
      <point x="342" y="299" type="line"/>
    </contour>
    <contour>
      <point x="277" y="500" type="move" name="top"/>
    </contour>
  </outline>
</glyph>
<glyph name="dcroat" format="1">
  <advance width="627"/>
  <unicode hex="0111"/>
  <outline>
    <contour>
      <point x="246" y="640" type="line"/>
      <point x="246" y="519" type="line"/>
      <point x="664" y="519" type="line"/>
      <point x="664" y="640" type="line"/>
    </contour>
    <component base="d"/>
    <contour>
      <point x="780" y="-56" type="move" name="ogonek"/>
    </contour>
  </outline>
</glyph>
<glyph name="eogonek" format="1">
  <advance width="594"/>
  <unicode hex="0119"/>
  <outline>
    <contour>
      <point x="257" y="22"/>
      <point x="182" y="-20"/>
      <point x="182" y="-96" type="curve" smooth="yes"/>
      <point x="182" y="-180"/>
      <point x="251" y="-215"/>
      <point x="334" y="-215" type="curve" smooth="yes"/>
      <point x="384" y="-215"/>
      <point x="420" y="-209"/>
      <point x="452" y="-189" type="curve"/>
      <point x="425" y="-86" type="line"/>
      <point x="415" y="-92"/>
      <point x="400" y="-94"/>
      <point x="385" y="-94" type="curve" smooth="yes"/>
      <point x="354" y="-94"/>
      <point x="336" y="-80"/>
      <point x="336" y="-56" type="curve" smooth="yes"/>
      <point x="336" y="-25"/>
      <point x="364" y="-9"/>
      <point x="426" y="11" type="curve"/>
      <point x="348" y="36" type="line"/>
    </contour>
    <component base="e"/>
  </outline>
</glyph>
<glyph name="uni0123" format="1">
  <advance width="593"/>
  <unicode hex="0123"/>
  <outline>
    <contour>
      <point x="262" y="768" type="line"/>
      <point x="191" y="547" type="line"/>
      <point x="369" y="547" type="line"/>
      <point x="401" y="768" type="line"/>
    </contour>
    <component base="g"/>
  </outline>
</glyph>
<glyph name="dotlessi" format="1">
  <advance width="308"/>
  <unicode hex="0131"/>
  <outline>
    <contour>
      <point x="39" y="500" type="line"/>
      <point x="39" y="0" type="line"/>
      <point x="269" y="0" type="line"/>
      <point x="269" y="500" type="line"/>
    </contour>
    <contour>
      <point x="250" y="10" type="move" name="ogonek"/>
    </contour>
    <contour>
      <point x="154" y="500" type="move" name="top"/>
    </contour>
  </outline>
</glyph>
<glyph name="uogonek" format="1">
  <advance width="620"/>
  <unicode hex="0173"/>
  <outline>
    <contour>
      <point x="38" y="500" type="line"/>
      <point x="38" y="162" type="line" smooth="yes"/>
      <point x="38" y="40"/>
      <point x="96" y="-10"/>
      <point x="200" y="-10" type="curve" smooth="yes"/>
      <point x="321" y="-10"/>
      <point x="389" y="73"/>
      <point x="389" y="239" type="curve"/>
      <point x="351" y="239" type="line"/>
      <point x="351" y="185"/>
      <point x="336" y="160"/>
      <point x="305" y="160" type="curve" smooth="yes"/>
      <point x="279" y="160"/>
      <point x="268" y="174"/>
      <point x="268" y="219" type="curve" smooth="yes"/>
      <point x="268" y="500" type="line"/>
    </contour>
    <contour>
      <point x="468" y="-25"/>
      <point x="511" y="0"/>
      <point x="581" y="0" type="curve"/>
      <point x="489" y="32" type="line"/>
      <point x="387" y="26"/>
      <point x="314" y="-17"/>
      <point x="314" y="-96" type="curve" smooth="yes"/>
      <point x="314" y="-180"/>
      <point x="383" y="-215"/>
      <point x="466" y="-215" type="curve" smooth="yes"/>
      <point x="516" y="-215"/>
      <point x="552" y="-209"/>
      <point x="584" y="-189" type="curve"/>
      <point x="557" y="-86" type="line"/>
      <point x="547" y="-92"/>
      <point x="532" y="-94"/>
      <point x="517" y="-94" type="curve" smooth="yes"/>
      <point x="486" y="-94"/>
      <point x="468" y="-80"/>
      <point x="468" y="-56" type="curve" smooth="yes"/>
    </contour>
    <contour>
      <point x="351" y="500" type="line"/>
      <point x="351" y="219" type="line"/>
      <point x="366" y="162" type="line"/>
      <point x="374" y="0" type="line"/>
      <point x="581" y="0" type="line"/>
      <point x="581" y="152" type="line"/>
      <point x="581" y="500" type="line"/>
    </contour>
    <contour>
      <point x="581" y="0" type="move" name="ogonek"/>
    </contour>
    <contour>
      <point x="304" y="500" type="move" name="top"/>
    </contour>
  </outline>
</glyph>
<glyph name="caron" format="1">
  <advance width="500"/>
  <unicode hex="02C7"/>
  <outline>
    <contour>
      <point x="307" y="730" type="line"/>
      <point x="250" y="659" type="line"/>
      <point x="193" y="730" type="line"/>
      <point x="37" y="730" type="line"/>
      <point x="143" y="553" type="line"/>
      <point x="357" y="553" type="line"/>
      <point x="463" y="730" type="line"/>
    </contour>
    <contour>
      <point x="256" y="500" type="move" name="_top"/>
    </contour>
  </outline>
</glyph>
<glyph name="ogonek" format="1">
  <advance width="697"/>
  <unicode hex="02DB"/>
  <outline>
    <contour>
      <point x="304" y="32" type="line"/>
      <point x="202" y="26"/>
      <point x="129" y="-17"/>
      <point x="129" y="-96" type="curve" smooth="yes"/>
      <point x="129" y="-180"/>
      <point x="198" y="-215"/>
      <point x="281" y="-215" type="curve" smooth="yes"/>
      <point x="331" y="-215"/>
      <point x="367" y="-209"/>
      <point x="399" y="-189" type="curve"/>
      <point x="372" y="-86" type="line"/>
      <point x="362" y="-92"/>
      <point x="347" y="-94"/>
      <point x="332" y="-94" type="curve" smooth="yes"/>
      <point x="301" y="-94"/>
      <point x="283" y="-80"/>
      <point x="283" y="-56" type="curve" smooth="yes"/>
      <point x="283" y="-25"/>
      <point x="311" y="-5"/>
      <point x="396" y="0" type="curve"/>
    </contour>
    <contour>
      <point x="396" y="0" type="move" name="_ogonek"/>
    </contour>
  </outline>
</glyph>
<glyph name="commaaccent" format="1">
  <advance width="275"/>
  <unicode hex="0326"/>
  <outline>
    <contour>
      <point x="29" y="-50" type="line"/>
      <point x="5" y="-243" type="line"/>
      <point x="147" y="-243" type="line"/>
      <point x="222" y="-50" type="line"/>
    </contour>
    <contour>
      <point x="112" y="0" type="move" name="_bottom"/>
    </contour>
  </outline>
</glyph>
<glyph name="pi" format="1">
  <advance width="824"/>
  <unicode hex="03C0"/>
  <outline>
    <contour>
      <point x="798" y="500" type="line"/>
      <point x="14" y="500" type="line"/>
      <point x="14" y="348" type="line"/>
      <point x="798" y="348" type="line"/>
    </contour>
    <contour>
      <point x="128" y="500" type="line"/>
      <point x="128" y="0" type="line"/>
      <point x="358" y="0" type="line"/>
      <point x="358" y="500" type="line"/>
    </contour>
    <contour>
      <point x="449" y="500" type="line"/>
      <point x="449" y="165" type="line" smooth="yes"/>
      <point x="449" y="40"/>
      <point x="511" y="-25"/>
      <point x="752" y="-5" type="curve"/>
      <point x="768" y="142" type="line"/>
      <point x="706" y="134"/>
      <point x="679" y="163"/>
      <point x="679" y="216" type="curve" smooth="yes"/>
      <point x="679" y="500" type="line"/>
    </contour>
  </outline>
</glyph>
<glyph name="emdash" format="1">
  <advance width="1000"/>
  <unicode hex="2014"/>
  <outline>
    <contour>
      <point x="75" y="359" type="line"/>
      <point x="75" y="184" type="line"/>
      <point x="925" y="184" type="line"/>
      <point x="925" y="359" type="line"/>
    </contour>
  </outline>
</glyph>
<glyph name="bullet" format="1">
  <advance width="430"/>
  <unicode hex="2022"/>
  <outline>
    <contour>
      <point x="105" y="487"/>
      <point x="42" y="426"/>
      <point x="42" y="320" type="curve" smooth="yes"/>
      <point x="42" y="214"/>
      <point x="105" y="153"/>
      <point x="215" y="153" type="curve" smooth="yes"/>
      <point x="325" y="153"/>
      <point x="388" y="214"/>
      <point x="388" y="320" type="curve" smooth="yes"/>
      <point x="388" y="426"/>
      <point x="325" y="487"/>
      <point x="215" y="487" type="curve" smooth="yes"/>
    </contour>
  </outline>
</glyph>
<glyph name="perthousand" format="1">
  <advance width="1430"/>
  <unicode hex="2030"/>
  <outline>
    <contour>
      <point x="1080" y="374"/>
      <point x="998" y="298"/>
      <point x="998" y="182" type="curve" smooth="yes"/>
      <point x="998" y="66"/>
      <point x="1080" y="-10"/>
      <point x="1202" y="-10" type="curve" smooth="yes"/>
      <point x="1324" y="-10"/>
      <point x="1406" y="66"/>
      <point x="1406" y="182" type="curve" smooth="yes"/>
      <point x="1406" y="298"/>
      <point x="1324" y="374"/>
      <point x="1202" y="374" type="curve" smooth="yes"/>
    </contour>
    <contour>
      <point x="1228" y="226"/>
      <point x="1243" y="210"/>
      <point x="1243" y="182" type="curve" smooth="yes"/>
      <point x="1243" y="154"/>
      <point x="1228" y="138"/>
      <point x="1202" y="138" type="curve" smooth="yes"/>
      <point x="1176" y="138"/>
      <point x="1161" y="154"/>
      <point x="1161" y="182" type="curve" smooth="yes"/>
      <point x="1161" y="210"/>
      <point x="1176" y="226"/>
      <point x="1202" y="226" type="curve" smooth="yes"/>
    </contour>
    <component base="percent"/>
  </outline>
</glyph>
<glyph name="guilsinglleft" format="1">
  <advance width="355"/>
  <unicode hex="2039"/>
  <outline>
    <contour>
      <point x="143" y="461" type="line"/>
      <point x="18" y="265" type="line"/>
      <point x="143" y="69" type="line"/>
      <point x="331" y="69" type="line"/>
      <point x="215" y="265" type="line"/>
      <point x="331" y="461" type="line"/>
    </contour>
  </outline>
</glyph>
<glyph name="radical" format="1">
  <advance width="697"/>
  <unicode hex="221A"/>
  <outline>
    <contour>
      <point x="575" y="818" type="line"/>
      <point x="371" y="299" type="line"/>
      <point x="282" y="0" type="line"/>
      <point x="454" y="0" type="line"/>
      <point x="767" y="818" type="line"/>
    </contour>
    <contour>
      <point x="26" y="398" type="line"/>
      <point x="26" y="201" type="line"/>
      <point x="137" y="201" type="line"/>
      <point x="225" y="0" type="line"/>
      <point x="388" y="0" type="line"/>
      <point x="292" y="286" type="line"/>
      <point x="244" y="398" type="line"/>
    </contour>
  </outline>
</glyph>
<glyph name="infinity" format="1">
  <advance width="979"/>
  <unicode hex="221E"/>
  <outline>
    <contour>
      <point x="648" y="564"/>
      <point x="600" y="554"/>
      <point x="424" y="369" type="curve" smooth="yes"/>
      <point x="325" y="264"/>
      <point x="308" y="252"/>
      <point x="276" y="252" type="curve" smooth="yes"/>
      <point x="252" y="252"/>
      <point x="237" y="275"/>
      <point x="237" y="318" type="curve" smooth="yes"/>
      <point x="237" y="361"/>
      <point x="252" y="382"/>
      <point x="276" y="382" type="curve" smooth="yes"/>
      <point x="306" y="382"/>
      <point x="327" y="367"/>
      <point x="425" y="263" type="curve" smooth="yes"/>
      <point x="601" y="78"/>
      <point x="646" y="70"/>
      <point x="755" y="70" type="curve" smooth="yes"/>
      <point x="860" y="70"/>
      <point x="961" y="116"/>
      <point x="961" y="317" type="curve" smooth="yes"/>
      <point x="961" y="518"/>
      <point x="860" y="564"/>
      <point x="755" y="564" type="curve" smooth="yes"/>
    </contour>
    <contour>
      <point x="119" y="564"/>
      <point x="18" y="518"/>
      <point x="18" y="317" type="curve" smooth="yes"/>
      <point x="18" y="116"/>
      <point x="119" y="70"/>
      <point x="224" y="70" type="curve" smooth="yes"/>
      <point x="332" y="70"/>
      <point x="379" y="79"/>
      <point x="555" y="264" type="curve" smooth="yes"/>
      <point x="654" y="368"/>
      <point x="671" y="382"/>
      <point x="704" y="382" type="curve" smooth="yes"/>
      <point x="727" y="382"/>
      <point x="742" y="361"/>
      <point x="742" y="318" type="curve" smooth="yes"/>
      <point x="742" y="275"/>
      <point x="726" y="252"/>
      <point x="703" y="252" type="curve" smooth="yes"/>
      <point x="673" y="252"/>
      <point x="656" y="265"/>
      <point x="555" y="371" type="curve" smooth="yes"/>
      <point x="379" y="556"/>
      <point x="331" y="564"/>
      <point x="224" y="564" type="curve" smooth="yes"/>
    </contour>
  </outline>
</glyph>
<glyph name="lozenge" format="1">
  <advance width="697"/>
  <unicode hex="25CA"/>
  <outline>
    <contour>
      <point x="280" y="660" type="line"/>
      <point x="466" y="330" type="line"/>
      <point x="680" y="330" type="line"/>
      <point x="471" y="660" type="line"/>
    </contour>
    <contour>
      <point x="16" y="330" type="line"/>
      <point x="225" y="0" type="line"/>
      <point x="416" y="0" type="line"/>
      <point x="230" y="330" type="line"/>
    </contour>
    <contour>
      <point x="466" y="330" type="line"/>
      <point x="280" y="0" type="line"/>
      <point x="471" y="0" type="line"/>
      <point x="680" y="330" type="line"/>
    </contour>
    <contour>
      <point x="225" y="660" type="line"/>
      <point x="16" y="330" type="line"/>
      <point x="230" y="330" type="line"/>
      <point x="416" y="660" type="line"/>
    </contour>
  </outline>
</glyph>
<glyph name="acute.cap" format="1">
  <advance width="494"/>
  <outline>
    <contour>
      <point x="167" y="709" type="line"/>
      <point x="330" y="709" type="line"/>
      <point x="426" y="876" type="line"/>
      <point x="220" y="876" type="line"/>
    </contour>
    <contour>
      <point x="258" y="660" type="move" name="_top"/>
    </contour>
  </outline>
</glyph>
<glyph name="bowl" format="1">
  <advance width="604"/>
  <outline>
    <contour>
      <point x="150" y="510"/>
      <point x="80" y="414"/>
      <point x="80" y="247" type="curve" smooth="yes"/>
      <point x="80" y="84"/>
      <point x="148" y="-10"/>
      <point x="271" y="-10" type="curve" smooth="yes"/>
      <point x="387" y="-10"/>
      <point x="451" y="91"/>
      <point x="451" y="220" type="curve"/>
      <point x="413" y="246" type="line"/>
      <point x="413" y="177"/>
      <point x="395" y="151"/>
      <point x="364" y="151" type="curve" smooth="yes"/>
      <point x="332" y="151"/>
      <point x="312" y="171"/>
      <point x="312" y="250" type="curve" smooth="yes"/>
      <point x="312" y="329"/>
      <point x="332" y="348"/>
      <point x="364" y="348" type="curve" smooth="yes"/>
      <point x="398" y="348"/>
      <point x="413" y="318"/>
      <point x="413" y="254" type="curve"/>
      <point x="437" y="280" type="line"/>
      <point x="437" y="410"/>
      <point x="388" y="510"/>
      <point x="272" y="510" type="curve" smooth="yes"/>
    </contour>
  </outline>
</glyph>
<glyph name="lacute.ss02" format="1">
  <advance width="308"/>
  <outline>
    <contour>
      <point x="53" y="746" type="line"/>
      <point x="215" y="746" type="line"/>
      <point x="306" y="913" type="line"/>
      <point x="111" y="913" type="line"/>
    </contour>
    <component base="l.ss02"/>
  </outline>
</glyph>
<glyph name="lslash.ss02" format="1">
  <advance width="368"/>
  <outline>
    <contour>
      <point x="193" y="279" type="line"/>
      <point x="369" y="368" type="line"/>
      <point x="369" y="511" type="line"/>
      <point x="162" y="373" type="line"/>
      <point x="-3" y="293" type="line"/>
      <point x="-3" y="150" type="line"/>
    </contour>
    <component base="l.ss02" xOffset="30"/>
  </outline>
</glyph>
